<svg width="26" height="26" viewBox="0 0 26 26" fill="none" xmlns="http://www.w3.org/2000/svg">
<mask id="mask0_341_87" style="mask-type:luminance" maskUnits="userSpaceOnUse" x="0" y="0" width="26" height="26">
<path d="M0 0H25.46V25.365H0V0Z" fill="white"/>
</mask>
<g mask="url(#mask0_341_87)">
<path d="M11.3928 15.3344L5.75921 20.9943L4.44712 22.3126L3.1811 23.5836L1.77829 22.2055L3.05548 20.9247L4.36756 19.605L9.98998 13.9577L11.2881 12.6547L12.6197 11.3169L13.7894 10.1418L19.6101 4.29564L20.9235 2.97594L22.0639 1.83006L23.4667 3.20817L22.3277 4.35127L21.0157 5.66958L15.1923 11.5185L14.0058 12.7103L12.6742 14.0481L11.3928 15.3344ZM23.6021 12.6825C23.6021 14.7212 23.0368 16.6291 22.0528 18.2575L23.4081 19.5897C24.7062 17.6025 25.46 15.2301 25.46 12.6825C25.46 11.5867 25.3204 10.5229 25.058 9.50909L23.4849 11.0888C23.5617 11.6089 23.6021 12.1415 23.6021 12.6825ZM3.37652 18.2061L8.78398 12.7743L10.0947 11.4574L11.4263 10.1196L10.1589 8.84716L8.777 7.45792L5.7285 4.39577C6.1305 4.05924 6.55483 3.75191 7.0029 3.47517C8.66533 2.44611 10.6279 1.85092 12.73 1.85092C13.2479 1.85092 13.7559 1.88708 14.2542 1.95661C15.0206 2.06369 15.7618 2.25003 16.468 2.50869H16.4694C17.0724 2.72841 17.6503 3.00097 18.1975 3.31803L19.5431 1.96773C19.0154 1.63398 18.4627 1.33778 17.8876 1.0833C17.2274 0.792656 16.5392 0.55486 15.8246 0.37825C14.8349 0.130719 13.7978 0 12.73 0C10.1086 0 7.6729 0.789875 5.64754 2.14295C5.21763 2.43081 4.80725 2.74231 4.41642 3.07884L3.23973 1.89681L1.89833 3.22208L3.0806 4.40967L4.39408 5.72938L7.44537 8.79431L8.82865 10.1822L7.5026 11.5144L2.54879 16.49L1.13063 17.9154C1.39165 18.487 1.69315 19.0349 2.03094 19.5578L3.37652 18.2061ZM1.85785 12.6825C1.85785 10.7454 2.36873 8.92503 3.26485 7.35224L1.90112 6.01306C0.696521 7.9502 0 10.235 0 12.6825C0 13.7825 0.140979 14.8491 0.404792 15.867L1.9779 14.2887C1.89833 13.7644 1.85785 13.2276 1.85785 12.6825ZM20.9905 19.7246L17.9379 16.6611L16.5588 15.2732L17.7731 14.0537L22.9154 8.88888L24.335 7.46209C24.0739 6.88777 23.771 6.3343 23.4305 5.80864L22.0849 7.16033L16.482 12.7868L15.283 13.9925L13.9514 15.3289L15.2271 16.611L16.6062 17.9975L19.6408 21.0443C19.1941 21.4115 18.7167 21.7424 18.2142 22.0358C16.6048 22.9759 14.7302 23.5141 12.73 23.5141C12.2177 23.5141 11.7124 23.4779 11.2183 23.4098C10.452 23.3041 9.71221 23.1178 9.00452 22.8619C8.39733 22.6408 7.81527 22.3668 7.26392 22.047L5.91833 23.3987C6.44875 23.7338 7.00569 24.0314 7.58496 24.2873H7.58635C8.24519 24.5779 8.93333 24.8143 9.64521 24.9909C10.6321 25.2357 11.6664 25.365 12.73 25.365C15.2509 25.365 17.6001 24.6349 19.5766 23.3764C20.0595 23.0691 20.5187 22.7312 20.9543 22.364L22.1267 23.5433L23.4695 22.218L22.3012 21.0443L20.9905 19.7246Z" fill="#5271FF"/>
</g>
</svg>
