<svg width="197" height="26" viewBox="0 0 197 26" fill="none" xmlns="http://www.w3.org/2000/svg">
<path d="M6.25333 12.339H18.76V9.22401H3.12667V18.569H18.76V15.454H6.25333V12.339ZM0 6.10901H18.76C20.844 6.10901 21.8867 7.14781 21.8867 9.22401V10.7815C21.8867 12.6811 21.3646 13.7185 20.3233 13.8965C21.3646 14.0745 21.8867 15.1133 21.8867 17.0115V18.569C21.8867 20.6466 20.844 21.684 18.76 21.684H0V6.10901Z" fill="black"/>
<path d="M25.0119 21.684V6.10901L43.7719 16.255V6.10901H46.8986V21.684L28.1386 11.7327V21.684H25.0119Z" fill="black"/>
<path d="M56.2772 12.339H68.7839V9.22401H53.1506V18.569H68.7839V15.454H56.2772V12.339ZM50.0239 6.10901H68.7839C70.8679 6.10901 71.9106 7.14781 71.9106 9.22401V10.7815C71.9106 12.6811 71.3885 13.7185 70.3472 13.8965C71.3885 14.0745 71.9106 15.1133 71.9106 17.0115V18.569C71.9106 20.6466 70.8679 21.684 68.7839 21.684H50.0239V6.10901Z" fill="black"/>
<path d="M100.048 6.10901H121.934V9.22401H112.554V21.684H109.428V9.22401H100.048V6.10901Z" fill="black"/>
<path d="M146.946 9.22401H128.186V18.569H146.946V21.684H128.186C126.101 21.684 125.06 20.6466 125.06 18.569V9.22401C125.06 7.14781 126.101 6.10901 128.186 6.10901H146.946V9.22401ZM146.946 15.454H131.313V12.339H146.946V15.454Z" fill="black"/>
<path d="M150.072 18.569V9.22401C150.072 7.14781 151.113 6.10901 153.198 6.10901H171.958V9.22401H153.198V18.569H171.958V21.684H153.198C151.113 21.684 150.072 20.6466 150.072 18.569Z" fill="black"/>
<path d="M178.21 6.10901V12.339H193.844V6.10901H196.97V21.684H193.844V15.454H178.21V21.684H175.084V6.10901H178.21Z" fill="black"/>
<mask id="mask0_336_2" style="mask-type:luminance" maskUnits="userSpaceOnUse" x="73" y="0" width="27" height="26">
<path d="M73.6693 0H99.1293V25.365H73.6693V0Z" fill="white"/>
</mask>
<g mask="url(#mask0_336_2)">
<path d="M85.0621 15.3344L79.4285 20.9943L78.1164 22.3126L76.8504 23.5836L75.4476 22.2055L76.7248 20.9247L78.0368 19.605L83.6593 13.9577L84.9574 12.6547L86.289 11.3169L87.4587 10.1418L93.2793 4.29564L94.5928 2.97594L95.7332 1.83006L97.136 3.20817L95.997 4.35127L94.6849 5.66958L88.8615 11.5185L87.6751 12.7103L86.3434 14.0481L85.0621 15.3344ZM97.2714 12.6825C97.2714 14.7212 96.7061 16.6291 95.7221 18.2575L97.0774 19.5897C98.3755 17.6025 99.1293 15.2301 99.1293 12.6825C99.1293 11.5867 98.9897 10.5229 98.7273 9.50909L97.1542 11.0888C97.2309 11.6089 97.2714 12.1415 97.2714 12.6825ZM77.0458 18.2061L82.4533 12.7743L83.7639 11.4574L85.0956 10.1196L83.8282 8.84716L82.4463 7.45792L79.3978 4.39577C79.7998 4.05924 80.2241 3.75191 80.6722 3.47517C82.3346 2.44611 84.2972 1.85092 86.3993 1.85092C86.9171 1.85092 87.4252 1.88708 87.9235 1.95661C88.6898 2.06369 89.431 2.25003 90.1373 2.50869H90.1387C90.7417 2.72841 91.3196 3.00097 91.8668 3.31803L93.2123 1.96773C92.6847 1.63398 92.132 1.33778 91.5569 1.0833C90.8967 0.792656 90.2085 0.55486 89.4938 0.37825C88.5042 0.130719 87.4671 0 86.3993 0C83.7779 0 81.3422 0.789875 79.3168 2.14295C78.8869 2.43081 78.4765 2.74231 78.0857 3.07884L76.909 1.89681L75.5676 3.22208L76.7499 4.40967L78.0634 5.72938L81.1147 8.79431L82.4979 10.1822L81.1719 11.5144L76.2181 16.49L74.7999 17.9154C75.0609 18.487 75.3624 19.0349 75.7002 19.5578L77.0458 18.2061ZM75.5271 12.6825C75.5271 10.7454 76.038 8.92503 76.9341 7.35224L75.5704 6.01306C74.3658 7.9502 73.6693 10.235 73.6693 12.6825C73.6693 13.7825 73.8103 14.8491 74.0741 15.867L75.6472 14.2887C75.5676 13.7644 75.5271 13.2276 75.5271 12.6825ZM94.6598 19.7246L91.6071 16.6611L90.2281 15.2732L91.4424 14.0537L96.5847 8.88888L98.0042 7.46209C97.7432 6.88777 97.4403 6.3343 97.0997 5.80864L95.7542 7.16033L90.1513 12.7868L88.9523 13.9925L87.6206 15.3289L88.8964 16.611L90.2755 17.9975L93.3101 21.0443C92.8634 21.4115 92.386 21.7424 91.8835 22.0358C90.2741 22.9759 88.3995 23.5141 86.3993 23.5141C85.887 23.5141 85.3817 23.4779 84.8876 23.4098C84.1213 23.3041 83.3815 23.1178 82.6738 22.8619C82.0666 22.6408 81.4846 22.3668 80.9332 22.047L79.5876 23.3987C80.118 23.7338 80.675 24.0314 81.2542 24.2873H81.2556C81.9145 24.5779 82.6026 24.8143 83.3145 24.9909C84.3013 25.2357 85.3357 25.365 86.3993 25.365C88.9202 25.365 91.2693 24.6349 93.2458 23.3764C93.7288 23.0691 94.188 22.7312 94.6235 22.364L95.796 23.5433L97.1388 22.218L95.9705 21.0443L94.6598 19.7246Z" fill="#5271FF"/>
</g>
</svg>
